{
  "accessors": [
    {
      "bufferView": 2,
      "componentType": 5126,
      "count": 4402,
      "max": [
        1.710513949394226,
        0.26561200618743896,
        2.2193899154663086
      ],
      "min": [
        -1.710513949394226,
        -0.26561200618743896,
        0.3303830027580261
      ],
      "type": "VEC3"
    },
    {
      "bufferView": 2,
      "byteOffset": 52824,
      "componentType": 5126,
      "count": 4402,
      "max": [
        0.9993554353713989,
        1.0,
        0.999362587928772
      ],
      "min": [
        -0.9993554353713989,
        -1.0,
        -0.999362587928772
      ],
      "type": "VEC3"
    },
    {
      "bufferView": 1,
      "componentType": 5126,
      "count": 4402,
      "max": [
        1.00027596950531,
        0.8751189708709717
      ],
      "min": [
        -0.00027600000612437725,
        0.37488099932670593
      ],
      "type": "VEC2"
    },
    {
      "bufferView": 0,
      "componentType": 5125,
      "count": 19740,
      "type": "SCALAR"
    },
    {
      "bufferView": 2,
      "byteOffset": 105648,
      "componentType": 5126,
      "count": 4572,
      "max": [
        1.4244179725646973,
        0.5816869735717773,
        0.9237080216407776
      ],
      "min": [
        -1.4244179725646973,
        -0.5816869735717773,
        -0.00015799999528098851
      ],
      "type": "VEC3"
    },
    {
      "bufferView": 2,
      "byteOffset": 160512,
      "componentType": 5126,
      "count": 4572,
      "max": [
        0.9993590116500854,
        0.9992891550064087,
        0.9993590116500854
      ],
      "min": [
        -0.9993590116500854,
        -0.9992891550064087,
        -0.9993590116500854
      ],
      "type": "VEC3"
    },
    {
      "bufferView": 1,
      "byteOffset": 35216,
      "componentType": 5126,
      "count": 4572,
      "max": [
        1.0,
        1.0
      ],
      "min": [
        0.0,
        0.01144499983638525
      ],
      "type": "VEC2"
    },
    {
      "bufferView": 0,
      "byteOffset": 78960,
      "componentType": 5125,
      "count": 18384,
      "type": "SCALAR"
    },
    {
      "bufferView": 2,
      "byteOffset": 215376,
      "componentType": 5126,
      "count": 2376,
      "max": [
        1.0190249681472778,
        0.603941023349762,
        0.5183150172233582
      ],
      "min": [
        -1.0190249681472778,
        -0.6058570146560669,
        0.4052340090274811
      ],
      "type": "VEC3"
    },
    {
      "bufferView": 2,
      "byteOffset": 243888,
      "componentType": 5126,
      "count": 2376,
      "max": [
        0.9993590116500854,
        0.9992891550064087,
        0.9993590116500854
      ],
      "min": [
        -0.9993590116500854,
        -0.9992891550064087,
        -0.9993590116500854
      ],
      "type": "VEC3"
    },
    {
      "bufferView": 1,
      "byteOffset": 71792,
      "componentType": 5126,
      "count": 2376,
      "max": [
        1.0,
        1.0
      ],
      "min": [
        0.0,
        0.024153999984264374
      ],
      "type": "VEC2"
    },
    {
      "bufferView": 0,
      "byteOffset": 152496,
      "componentType": 5125,
      "count": 9192,
      "type": "SCALAR"
    }
  ],
  "asset": {
    "extras": {
      "author": "Fridqeir (https://sketchfab.com/Fridqeir)",
      "license": "SKETCHFAB Standard (https://sketchfab.com/licenses)",
      "source": "https://sketchfab.com/3d-models/toy-car-25d63b7d00d54bb096f1841df1f046ac",
      "title": "Toy Car"
    },
    "generator": "Sketchfab-15.55.0",
    "version": "2.0"
  },
  "bufferViews": [
    {
      "buffer": 0,
      "byteLength": 189264,
      "name": "floatBufferViews",
      "target": 34963
    },
    {
      "buffer": 0,
      "byteLength": 90800,
      "byteOffset": 189264,
      "byteStride": 8,
      "name": "floatBufferViews",
      "target": 34962
    },
    {
      "buffer": 0,
      "byteLength": 272400,
      "byteOffset": 280064,
      "byteStride": 12,
      "name": "floatBufferViews",
      "target": 34962
    }
  ],
  "buffers": [
    {
      "byteLength": 552464,
      "uri": "ltf.bin"
    }
  ],
  "materials": [
    {
      "doubleSided": true,
      "name": "BLACK",
      "pbrMetallicRoughness": {
        "baseColorFactor": [
          0.02721,
          0.02721,
          0.02721,
          1.0
        ],
        "metallicFactor": 0.0,
        "roughnessFactor": 0.8270964087771642
      }
    },
    {
      "doubleSided": true,
      "name": "material",
      "pbrMetallicRoughness": {
        "baseColorFactor": [
          0.8,
          0.003669,
          0.008994,
          1.0
        ],
        "metallicFactor": 0.0,
        "roughnessFactor": 0.8270964087771642
      }
    },
    {
      "doubleSided": true,
      "name": "Yellow",
      "pbrMetallicRoughness": {
        "baseColorFactor": [
          0.8,
          0.555058,
          0.0,
          1.0
        ],
        "metallicFactor": 0.0,
        "roughnessFactor": 0.8270964087771642
      }
    }
  ],
  "meshes": [
    {
      "name": "Object_0",
      "primitives": [
        {
          "attributes": {
            "NORMAL": 1,
            "POSITION": 0,
            "TEXCOORD_0": 2
          },
          "indices": 3,
          "material": 1,
          "mode": 4
        }
      ]
    },
    {
      "name": "Object_1",
      "primitives": [
        {
          "attributes": {
            "NORMAL": 5,
            "POSITION": 4,
            "TEXCOORD_0": 6
          },
          "indices": 7,
          "material": 0,
          "mode": 4
        }
      ]
    },
    {
      "name": "Object_2",
      "primitives": [
        {
          "attributes": {
            "NORMAL": 9,
            "POSITION": 8,
            "TEXCOORD_0": 10
          },
          "indices": 11,
          "material": 2,
          "mode": 4
        }
      ]
    }
  ],
  "nodes": [
    {
      "children": [
        1
      ],
      "matrix": [
        1.0,
        0.0,
        0.0,
        0.0,
        0.0,
        2.220446049250313e-16,
        -1.0,
        0.0,
        0.0,
        1.0,
        2.220446049250313e-16,
        0.0,
        0.0,
        0.0,
        0.0,
        1.0
      ],
      "name": "Sketchfab_model"
    },
    {
      "children": [
        2,
        3,
        4
      ],
      "name": "Model.obj.cleaner.materialmerger.gles"
    },
    {
      "mesh": 0,
      "name": "Object_2"
    },
    {
      "mesh": 1,
      "name": "Object_3"
    },
    {
      "mesh": 2,
      "name": "Object_4"
    }
  ],
  "scene": 0,
  "scenes": [
    {
      "name": "Sketchfab_Scene",
      "nodes": [
        0
      ]
    }
  ]
}
