{
  "accessors": [
    {
      "bufferView": 2,
      "componentType": 5126,
      "count": 625,
      "max": [
        0.09494860470294952,
        0.056951042264699936,
        0.07446848601102829
      ],
      "min": [
        0.04920104891061783,
        -0.008661060594022274,
        -2.6572344324904407e-09
      ],
      "type": "VEC3"
    },
    {
      "bufferView": 2,
      "byteOffset": 7500,
      "componentType": 5126,
      "count": 625,
      "max": [
        0.9958743453025818,
        1.0,
        1.0
      ],
      "min": [
        -1.0,
        -1.0,
        -1.0
      ],
      "type": "VEC3"
    },
    {
      "bufferView": 3,
      "componentType": 5126,
      "count": 625,
      "max": [
        1.0,
        0.9999984502792358,
        0.999987781047821,
        1.0
      ],
      "min": [
        -0.9999726414680481,
        -1.0,
        -0.997189998626709,
        1.0
      ],
      "type": "VEC4"
    },
    {
      "bufferView": 1,
      "componentType": 5126,
      "count": 625,
      "max": [
        0.9799554944038391,
        0.904729425907135
      ],
      "min": [
        0.020044555887579918,
        0.020044539123773575
      ],
      "type": "VEC2"
    },
    {
      "bufferView": 0,
      "componentType": 5125,
      "count": 2580,
      "type": "SCALAR"
    }
  ],
  "asset": {
    "extras": {
      "author": "Anom Purple Modelling (https://sketchfab.com/Anom404)",
      "license": "SKETCHFAB Standard (https://sketchfab.com/licenses)",
      "source": "https://sketchfab.com/3d-models/toilet-0db3df49d8704811bfbbf03486581613",
      "title": "Toilet"
    },
    "generator": "Sketchfab-15.57.0",
    "version": "2.0"
  },
  "bufferViews": [
    {
      "buffer": 0,
      "byteLength": 10320,
      "name": "floatBufferViews",
      "target": 34963
    },
    {
      "buffer": 0,
      "byteLength": 5000,
      "byteOffset": 10320,
      "byteStride": 8,
      "name": "floatBufferViews",
      "target": 34962
    },
    {
      "buffer": 0,
      "byteLength": 15000,
      "byteOffset": 15320,
      "byteStride": 12,
      "name": "floatBufferViews",
      "target": 34962
    },
    {
      "buffer": 0,
      "byteLength": 10000,
      "byteOffset": 30320,
      "byteStride": 16,
      "name": "floatBufferViews",
      "target": 34962
    }
  ],
  "buffers": [
    {
      "byteLength": 40320,
      "uri": "scene.bin"
    }
  ],
  "images": [
    {
      "uri": "textures/Materiais.003_baseColor.png"
    },
    {
      "uri": "textures/Materiais.003_metallicRoughness.png"
    },
    {
      "uri": "textures/Materiais.003_normal.png"
    }
  ],
  "materials": [
    {
      "doubleSided": true,
      "name": "Materiais.003",
      "normalTexture": {
        "index": 2
      },
      "occlusionTexture": {
        "index": 1
      },
      "pbrMetallicRoughness": {
        "baseColorTexture": {
          "index": 0
        },
        "metallicFactor": 0.0,
        "metallicRoughnessTexture": {
          "index": 1
        }
      }
    }
  ],
  "meshes": [
    {
      "name": "Plano_Materiais.003_0",
      "primitives": [
        {
          "attributes": {
            "NORMAL": 1,
            "POSITION": 0,
            "TANGENT": 2,
            "TEXCOORD_0": 3
          },
          "indices": 4,
          "material": 0,
          "mode": 4
        }
      ]
    }
  ],
  "nodes": [
    {
      "children": [
        1
      ],
      "matrix": [
        13.285042762756348,
        0.0,
        0.0,
        0.0,
        0.0,
        2.9498720716683796e-15,
        -13.285042762756348,
        0.0,
        0.0,
        13.285042762756348,
        2.9498720716683796e-15,
        0.0,
        0.0,
        0.0,
        0.0,
        1.0
      ],
      "name": "Sketchfab_model"
    },
    {
      "children": [
        2
      ],
      "matrix": [
        0.009999999776482582,
        0.0,
        0.0,
        0.0,
        0.0,
        0.0,
        0.009999999776482582,
        0.0,
        0.0,
        -0.009999999776482582,
        0.0,
        0.0,
        0.0,
        0.0,
        0.0,
        1.0
      ],
      "name": "722d8174d73c4e5aa68c83e1a4558593.fbx"
    },
    {
      "children": [
        3
      ],
      "name": "RootNode"
    },
    {
      "children": [
        4
      ],
      "matrix": [
        100.0,
        0.0,
        0.0,
        0.0,
        -0.0,
        -1.629206793918314e-05,
        -99.99999999999868,
        0.0,
        0.0,
        99.99999999999868,
        -1.629206793918314e-05,
        0.0,
        -4.92010498046875,
        0.0,
        0.0,
        1.0
      ],
      "name": "Plano"
    },
    {
      "mesh": 0,
      "name": "Plano_Materiais.003_0"
    }
  ],
  "samplers": [
    {
      "magFilter": 9729,
      "minFilter": 9987,
      "wrapS": 10497,
      "wrapT": 10497
    }
  ],
  "scene": 0,
  "scenes": [
    {
      "name": "Sketchfab_Scene",
      "nodes": [
        0
      ]
    }
  ],
  "textures": [
    {
      "sampler": 0,
      "source": 0
    },
    {
      "sampler": 0,
      "source": 1
    },
    {
      "sampler": 0,
      "source": 2
    }
  ]
}
